<mxfile host="app.diagrams.net" modified="2023-07-24T18:40:51.165Z" agent="Mozilla/5.0 (X11; Linux x86_64) AppleWebKit/537.36 (KHTML, like Gecko) Chrome/114.0.0.0 Safari/537.36" etag="tXvDi1GAkrMSWxxAebnd" version="21.6.5" type="device">
  <diagram id="R2lEEEUBdFMjLlhIrx00" name="Page-1">
    <mxGraphModel dx="985" dy="843" grid="1" gridSize="10" guides="1" tooltips="1" connect="1" arrows="1" fold="1" page="1" pageScale="1" pageWidth="850" pageHeight="1100" math="0" shadow="0" extFonts="Permanent Marker^https://fonts.googleapis.com/css?family=Permanent+Marker">
      <root>
        <mxCell id="0" />
        <mxCell id="1" parent="0" />
        <mxCell id="VqRv7L0lzxxz7RWHUaVm-1" value="Message" style="whiteSpace=wrap;html=1;align=center;" vertex="1" parent="1">
          <mxGeometry x="140" y="250" width="100" height="60" as="geometry" />
        </mxCell>
        <mxCell id="VqRv7L0lzxxz7RWHUaVm-2" value="User" style="whiteSpace=wrap;html=1;align=center;" vertex="1" parent="1">
          <mxGeometry x="480" y="250" width="140" height="60" as="geometry" />
        </mxCell>
        <mxCell id="VqRv7L0lzxxz7RWHUaVm-3" value="uid" style="ellipse;whiteSpace=wrap;html=1;align=center;fontStyle=4;fillColor=#DBDBDB;" vertex="1" parent="1">
          <mxGeometry x="425" y="400" width="70" height="40" as="geometry" />
        </mxCell>
        <mxCell id="VqRv7L0lzxxz7RWHUaVm-5" value="mid" style="ellipse;whiteSpace=wrap;html=1;align=center;fontStyle=4;" vertex="1" parent="1">
          <mxGeometry x="10" y="200" width="70" height="40" as="geometry" />
        </mxCell>
        <mxCell id="VqRv7L0lzxxz7RWHUaVm-6" value="timestamp" style="ellipse;whiteSpace=wrap;html=1;align=center;" vertex="1" parent="1">
          <mxGeometry y="260" width="90" height="40" as="geometry" />
        </mxCell>
        <mxCell id="VqRv7L0lzxxz7RWHUaVm-7" value="content" style="ellipse;whiteSpace=wrap;html=1;align=center;" vertex="1" parent="1">
          <mxGeometry x="5" y="320" width="80" height="40" as="geometry" />
        </mxCell>
        <mxCell id="VqRv7L0lzxxz7RWHUaVm-8" value="email" style="ellipse;whiteSpace=wrap;html=1;align=center;fillColor=#DBDBDB;" vertex="1" parent="1">
          <mxGeometry x="507.5" y="400" width="85" height="40" as="geometry" />
        </mxCell>
        <mxCell id="VqRv7L0lzxxz7RWHUaVm-9" value="profile_pic" style="ellipse;whiteSpace=wrap;html=1;align=center;fillColor=#DBDBDB;" vertex="1" parent="1">
          <mxGeometry x="602.5" y="400" width="95" height="40" as="geometry" />
        </mxCell>
        <mxCell id="VqRv7L0lzxxz7RWHUaVm-14" value="" style="edgeStyle=entityRelationEdgeStyle;fontSize=12;html=1;endArrow=ERzeroToMany;endFill=1;rounded=0;entryX=1;entryY=0.25;entryDx=0;entryDy=0;exitX=0;exitY=0.5;exitDx=0;exitDy=0;" edge="1" parent="1" source="VqRv7L0lzxxz7RWHUaVm-12" target="VqRv7L0lzxxz7RWHUaVm-1">
          <mxGeometry width="100" height="100" relative="1" as="geometry">
            <mxPoint x="240" y="530" as="sourcePoint" />
            <mxPoint x="490" y="300" as="targetPoint" />
            <Array as="points">
              <mxPoint x="290" y="340" />
              <mxPoint x="410" y="340" />
              <mxPoint x="350" y="180" />
              <mxPoint x="360" y="170" />
            </Array>
          </mxGeometry>
        </mxCell>
        <mxCell id="VqRv7L0lzxxz7RWHUaVm-12" value="creation" style="shape=rhombus;perimeter=rhombusPerimeter;whiteSpace=wrap;html=1;align=center;" vertex="1" parent="1">
          <mxGeometry x="300" y="160" width="120" height="60" as="geometry" />
        </mxCell>
        <mxCell id="VqRv7L0lzxxz7RWHUaVm-17" value="" style="endArrow=none;html=1;rounded=0;exitX=1;exitY=0.5;exitDx=0;exitDy=0;entryX=0;entryY=0.25;entryDx=0;entryDy=0;" edge="1" parent="1" source="VqRv7L0lzxxz7RWHUaVm-12" target="VqRv7L0lzxxz7RWHUaVm-2">
          <mxGeometry relative="1" as="geometry">
            <mxPoint x="310" y="600" as="sourcePoint" />
            <mxPoint x="470" y="600" as="targetPoint" />
            <Array as="points">
              <mxPoint x="450" y="190" />
              <mxPoint x="450" y="265" />
            </Array>
          </mxGeometry>
        </mxCell>
        <mxCell id="VqRv7L0lzxxz7RWHUaVm-18" value="reception" style="shape=rhombus;perimeter=rhombusPerimeter;whiteSpace=wrap;html=1;align=center;" vertex="1" parent="1">
          <mxGeometry x="300" y="320" width="120" height="60" as="geometry" />
        </mxCell>
        <mxCell id="VqRv7L0lzxxz7RWHUaVm-19" value="" style="edgeStyle=entityRelationEdgeStyle;fontSize=12;html=1;endArrow=ERzeroToMany;endFill=1;rounded=0;entryX=1;entryY=0.75;entryDx=0;entryDy=0;exitX=0;exitY=0.5;exitDx=0;exitDy=0;" edge="1" parent="1" source="VqRv7L0lzxxz7RWHUaVm-18" target="VqRv7L0lzxxz7RWHUaVm-1">
          <mxGeometry width="100" height="100" relative="1" as="geometry">
            <mxPoint x="360" y="360" as="sourcePoint" />
            <mxPoint x="460" y="260" as="targetPoint" />
          </mxGeometry>
        </mxCell>
        <mxCell id="VqRv7L0lzxxz7RWHUaVm-20" value="" style="edgeStyle=entityRelationEdgeStyle;fontSize=12;html=1;endArrow=ERoneToMany;rounded=0;entryX=0;entryY=0.75;entryDx=0;entryDy=0;exitX=1;exitY=0.5;exitDx=0;exitDy=0;" edge="1" parent="1" source="VqRv7L0lzxxz7RWHUaVm-18" target="VqRv7L0lzxxz7RWHUaVm-2">
          <mxGeometry width="100" height="100" relative="1" as="geometry">
            <mxPoint x="360" y="360" as="sourcePoint" />
            <mxPoint x="460" y="260" as="targetPoint" />
            <Array as="points">
              <mxPoint x="440" y="340" />
            </Array>
          </mxGeometry>
        </mxCell>
        <mxCell id="VqRv7L0lzxxz7RWHUaVm-21" value="friendship" style="shape=rhombus;perimeter=rhombusPerimeter;whiteSpace=wrap;html=1;align=center;" vertex="1" parent="1">
          <mxGeometry x="650" y="250" width="100" height="60" as="geometry" />
        </mxCell>
        <mxCell id="VqRv7L0lzxxz7RWHUaVm-24" value="" style="edgeStyle=entityRelationEdgeStyle;fontSize=12;html=1;endArrow=ERzeroToMany;endFill=1;rounded=0;entryX=1;entryY=0.75;entryDx=0;entryDy=0;exitX=0.5;exitY=1;exitDx=0;exitDy=0;" edge="1" parent="1" source="VqRv7L0lzxxz7RWHUaVm-21" target="VqRv7L0lzxxz7RWHUaVm-2">
          <mxGeometry width="100" height="100" relative="1" as="geometry">
            <mxPoint x="730" y="350" as="sourcePoint" />
            <mxPoint x="710" y="330" as="targetPoint" />
            <Array as="points">
              <mxPoint x="630" y="450" />
              <mxPoint x="760" y="400" />
              <mxPoint x="740" y="390" />
              <mxPoint x="750" y="310" />
              <mxPoint x="640" y="420" />
              <mxPoint x="690" y="420" />
              <mxPoint x="620" y="400" />
            </Array>
          </mxGeometry>
        </mxCell>
        <mxCell id="VqRv7L0lzxxz7RWHUaVm-29" value="" style="edgeStyle=entityRelationEdgeStyle;fontSize=12;html=1;endArrow=ERzeroToMany;endFill=1;rounded=0;entryX=1;entryY=0.25;entryDx=0;entryDy=0;exitX=0.5;exitY=0;exitDx=0;exitDy=0;" edge="1" parent="1" source="VqRv7L0lzxxz7RWHUaVm-21" target="VqRv7L0lzxxz7RWHUaVm-2">
          <mxGeometry width="100" height="100" relative="1" as="geometry">
            <mxPoint x="690" y="350" as="sourcePoint" />
            <mxPoint x="790" y="250" as="targetPoint" />
          </mxGeometry>
        </mxCell>
        <mxCell id="VqRv7L0lzxxz7RWHUaVm-31" value="" style="endArrow=none;html=1;rounded=0;exitX=1;exitY=0.5;exitDx=0;exitDy=0;entryX=1;entryY=0.5;entryDx=0;entryDy=0;" edge="1" parent="1" source="VqRv7L0lzxxz7RWHUaVm-5" target="VqRv7L0lzxxz7RWHUaVm-7">
          <mxGeometry relative="1" as="geometry">
            <mxPoint x="105" y="220" as="sourcePoint" />
            <mxPoint x="105" y="370" as="targetPoint" />
            <Array as="points">
              <mxPoint x="105" y="220" />
              <mxPoint x="105" y="280" />
              <mxPoint x="105" y="340" />
            </Array>
          </mxGeometry>
        </mxCell>
        <mxCell id="VqRv7L0lzxxz7RWHUaVm-36" value="" style="endArrow=none;html=1;rounded=0;entryX=0;entryY=0.5;entryDx=0;entryDy=0;exitX=1;exitY=0.5;exitDx=0;exitDy=0;" edge="1" parent="1" source="VqRv7L0lzxxz7RWHUaVm-6" target="VqRv7L0lzxxz7RWHUaVm-1">
          <mxGeometry relative="1" as="geometry">
            <mxPoint x="100" y="280" as="sourcePoint" />
            <mxPoint x="410" y="330" as="targetPoint" />
          </mxGeometry>
        </mxCell>
        <mxCell id="VqRv7L0lzxxz7RWHUaVm-37" value="" style="endArrow=none;html=1;rounded=0;exitX=0.5;exitY=0;exitDx=0;exitDy=0;entryX=0.5;entryY=0;entryDx=0;entryDy=0;" edge="1" parent="1" source="VqRv7L0lzxxz7RWHUaVm-3" target="VqRv7L0lzxxz7RWHUaVm-9">
          <mxGeometry relative="1" as="geometry">
            <mxPoint x="520" y="320" as="sourcePoint" />
            <mxPoint x="690" y="380" as="targetPoint" />
            <Array as="points">
              <mxPoint x="460" y="380" />
              <mxPoint x="650" y="380" />
            </Array>
          </mxGeometry>
        </mxCell>
        <mxCell id="VqRv7L0lzxxz7RWHUaVm-38" value="" style="endArrow=none;html=1;rounded=0;entryX=0.5;entryY=1;entryDx=0;entryDy=0;exitX=0.5;exitY=0;exitDx=0;exitDy=0;" edge="1" parent="1" source="VqRv7L0lzxxz7RWHUaVm-8" target="VqRv7L0lzxxz7RWHUaVm-2">
          <mxGeometry relative="1" as="geometry">
            <mxPoint x="380" y="330" as="sourcePoint" />
            <mxPoint x="540" y="330" as="targetPoint" />
          </mxGeometry>
        </mxCell>
        <mxCell id="VqRv7L0lzxxz7RWHUaVm-39" value="key" style="swimlane;fontStyle=0;childLayout=stackLayout;horizontal=1;startSize=26;fillColor=#99CCFF;horizontalStack=0;resizeParent=1;resizeParentMax=0;resizeLast=0;collapsible=1;marginBottom=0;html=1;perimeterSpacing=2;strokeColor=#000000;" vertex="1" parent="1">
          <mxGeometry x="520" y="90" width="170" height="70" as="geometry" />
        </mxCell>
        <mxCell id="VqRv7L0lzxxz7RWHUaVm-40" value="items in grey are stored by external auth server" style="text;strokeColor=#000000;fillColor=#99CCFF;align=left;verticalAlign=top;spacingLeft=4;spacingRight=4;overflow=hidden;rotatable=0;points=[[0,0.5],[1,0.5]];portConstraint=eastwest;whiteSpace=wrap;html=1;perimeterSpacing=2;" vertex="1" parent="VqRv7L0lzxxz7RWHUaVm-39">
          <mxGeometry y="26" width="170" height="44" as="geometry" />
        </mxCell>
      </root>
    </mxGraphModel>
  </diagram>
</mxfile>
